<svg height="32" viewBox="0 0 32 32" width="32" xmlns="http://www.w3.org/2000/svg"><path d="m18.901 32h4.901c4.5 0 8.198-3.698 8.198-8.198v-15.604c0-4.5-3.698-8.198-8.198-8.198h-5c-.099 0-.203.099-.203.198v31.604c0 .099.099.198.302.198zm6.099-17.599c1.802 0 3.198 1.5 3.198 3.198 0 1.802-1.5 3.198-3.198 3.198-1.802 0-3.198-1.396-3.198-3.198-.104-1.797 1.396-3.198 3.198-3.198zm-9.802-14.401h-7c-4.5 0-8.198 3.698-8.198 8.198v15.604c0 4.5 3.698 8.198 8.198 8.198h7c.099 0 .203-.099.203-.198v-31.604c0-.099-.099-.198-.203-.198zm-2.297 29.401h-4.703c-3.099 0-5.599-2.5-5.599-5.599v-15.604c0-3.099 2.5-5.599 5.599-5.599h4.604zm-7.901-19.802c0 1.698 1.302 3 3 3s3-1.302 3-3-1.302-3-3-3-3 1.302-3 3z"/></svg>